<?xml version="1.0" encoding="utf-8"?>
<!-- Generator: Adobe Illustrator 19.0.0, SVG Export Plug-In . SVG Version: 6.00 Build 0)  -->
<svg version="1.1" id="Layer_1" xmlns="http://www.w3.org/2000/svg" xmlns:xlink="http://www.w3.org/1999/xlink" x="0px" y="0px"
	 viewBox="0 0 200.9 35" style="enable-background:new 0 0 200.9 35;" xml:space="preserve">
<style type="text/css">
	.st0{fill:#4394B2;}
	.st1{fill:#FFFFFF;}
</style>
<path id="XMLID_61_" class="st0" d="M183.4,35H17.5C7.8,35,0,27.2,0,17.5v0C0,7.8,7.8,0,17.5,0l165.8,0c9.7,0,17.5,7.8,17.5,17.5v0
	C200.9,27.2,193,35,183.4,35z"/>
<g>
	<g>
		<path class="st1" d="M43.6,21.4v-8.6h6.2v1h-5.1v2.6h4.8v1h-4.8v2.9H50v1H43.6z"/>
		<path class="st1" d="M51.5,21.4v-8.6h1.2l4.5,6.7v-6.7h1.1v8.6h-1.2l-4.5-6.8v6.8H51.5z"/>
		<path class="st1" d="M62.4,21.4v-7.6h-2.8v-1h6.8v1h-2.8v7.6H62.4z"/>
		<path class="st1" d="M67.6,21.4v-8.6h6.2v1h-5.1v2.6h4.8v1h-4.8v2.9H74v1H67.6z"/>
		<path class="st1" d="M75.6,21.4v-8.6h3.8c0.8,0,1.3,0.1,1.7,0.2s0.7,0.4,1,0.8s0.4,0.8,0.4,1.3c0,0.6-0.2,1.1-0.6,1.5
			s-1,0.7-1.8,0.8c0.3,0.1,0.5,0.3,0.7,0.4c0.3,0.3,0.6,0.7,0.9,1.1l1.5,2.3h-1.4l-1.1-1.8c-0.3-0.5-0.6-0.9-0.8-1.2
			s-0.4-0.5-0.6-0.6s-0.3-0.2-0.5-0.2c-0.1,0-0.3,0-0.6,0h-1.3v3.8H75.6z M76.7,16.6h2.4c0.5,0,0.9-0.1,1.2-0.2s0.5-0.3,0.7-0.5
			c0.2-0.2,0.2-0.5,0.2-0.8c0-0.4-0.1-0.7-0.4-1s-0.8-0.4-1.4-0.4h-2.7V16.6z"/>
		<path class="st1" d="M89.7,21.4v-3.6l-3.3-5h1.4l1.7,2.6c0.3,0.5,0.6,1,0.9,1.5c0.3-0.4,0.6-1,0.9-1.5l1.7-2.5h1.3l-3.4,5v3.6
			H89.7z"/>
		<path class="st1" d="M95,17.3c0-1.4,0.4-2.5,1.1-3.3s1.8-1.2,3-1.2c0.8,0,1.5,0.2,2.1,0.6s1.1,0.9,1.5,1.6s0.5,1.4,0.5,2.3
			c0,0.9-0.2,1.7-0.5,2.3s-0.8,1.2-1.5,1.6s-1.3,0.5-2.1,0.5c-0.8,0-1.5-0.2-2.2-0.6s-1.1-0.9-1.4-1.6S95,18,95,17.3z M96.2,17.3
			c0,1,0.3,1.9,0.8,2.4s1.3,0.9,2.1,0.9c0.9,0,1.6-0.3,2.1-0.9s0.8-1.5,0.8-2.6c0-0.7-0.1-1.3-0.4-1.8s-0.6-0.9-1-1.2
			s-1-0.4-1.5-0.4c-0.8,0-1.5,0.3-2.1,0.8S96.2,16,96.2,17.3z"/>
		<path class="st1" d="M110.3,12.9h1.1v5c0,0.9-0.1,1.5-0.3,2.1s-0.5,0.9-1.1,1.2s-1.2,0.5-2,0.5c-0.8,0-1.5-0.1-2-0.4
			s-0.9-0.7-1.1-1.2s-0.3-1.2-0.3-2.2v-5h1.1v5c0,0.7,0.1,1.3,0.2,1.6s0.4,0.6,0.7,0.8s0.8,0.3,1.2,0.3c0.8,0,1.4-0.2,1.8-0.6
			s0.5-1.1,0.5-2.2V12.9z"/>
		<path class="st1" d="M113.4,21.4v-8.6h3.8c0.8,0,1.3,0.1,1.7,0.2s0.7,0.4,1,0.8s0.4,0.8,0.4,1.3c0,0.6-0.2,1.1-0.6,1.5
			s-1,0.7-1.8,0.8c0.3,0.1,0.5,0.3,0.7,0.4c0.3,0.3,0.6,0.7,0.9,1.1l1.5,2.3h-1.4l-1.1-1.8c-0.3-0.5-0.6-0.9-0.8-1.2
			s-0.4-0.5-0.6-0.6s-0.3-0.2-0.5-0.2c-0.1,0-0.3,0-0.6,0h-1.3v3.8H113.4z M114.5,16.6h2.4c0.5,0,0.9-0.1,1.2-0.2s0.5-0.3,0.7-0.5
			c0.2-0.2,0.2-0.5,0.2-0.8c0-0.4-0.1-0.7-0.4-1s-0.8-0.4-1.4-0.4h-2.7V16.6z"/>
		<path class="st1" d="M125.3,21.4v-8.6h1.2l4.5,6.7v-6.7h1.1v8.6h-1.2l-4.5-6.8v6.8H125.3z"/>
		<path class="st1" d="M133.1,21.4l3.3-8.6h1.2l3.5,8.6h-1.3l-1-2.6h-3.6l-0.9,2.6H133.1z M135.5,17.9h2.9l-0.9-2.4
			c-0.3-0.7-0.5-1.3-0.6-1.8c-0.1,0.6-0.3,1.1-0.5,1.6L135.5,17.9z"/>
		<path class="st1" d="M142,21.4v-8.6h1.7l2,6.1c0.2,0.6,0.3,1,0.4,1.3c0.1-0.3,0.3-0.8,0.5-1.4l2.1-6h1.5v8.6h-1.1v-7.2l-2.5,7.2
			h-1l-2.5-7.3v7.3H142z"/>
		<path class="st1" d="M152,21.4v-8.6h6.2v1h-5.1v2.6h4.8v1h-4.8v2.9h5.3v1H152z"/>
	</g>
</g>
</svg>
