<?xml version="1.0" encoding="utf-8"?>
<!-- Generator: Adobe Illustrator 19.0.0, SVG Export Plug-In . SVG Version: 6.00 Build 0)  -->
<svg version="1.1" id="Layer_1" xmlns="http://www.w3.org/2000/svg" xmlns:xlink="http://www.w3.org/1999/xlink" x="0px" y="0px"
	 viewBox="0 0 376.7 376" style="enable-background:new 0 0 376.7 376;" xml:space="preserve">
<style type="text/css">
	.st0{fill:#FFFFFF;}
	.st1{font-family:'MyriadPro-Bold';}
	.st2{font-size:23.2159px;}
</style>
<circle class="st0" cx="187.8" cy="188.5" r="184.5"/>
<g>
	<path d="M98.5,244.7c0-48.3,0-96,0-144c14.4,0,28.8,0,43.5,0c0,35,0,70.1,0,105.4c3,0,5.4,0,8,0c-0.6-3.8-1.1-7.3-1.6-11.2
		c14.1,0,27.8,0,41.7,0c1.7,13.9,8.6,22.8,23.5,23.7c-5,7.6-18.4,10.6-41.1,9.2c18.8,7.1,41.8,6.1,56.5-7
		c10.7-9.5,15.1-28.5,10.3-41.9c-2.5-7.1-6.6-12.8-11.5-18.2c-5.4-5.9-6.3-13.3-6.8-20.9c2.9,7.9,5.6,15.8,12.8,20.8
		c0.4-0.2,0.8-0.4,1.2-0.6c-1-2.5-2-4.9-3.1-7.7c1.8,0.9,3.5,1.6,5.1,2.4c0.2-0.3,0.5-0.5,0.7-0.8c-0.7-1.4-1.3-2.8-2-4.1
		c1.9,0.3,4.1,1.3,5.5,0.7c1.3-0.6,1.7-3,2.8-5.3c0.8,1,1.5,2,2.3,2.9c-2.5,4.4-2.4,5.9,0.3,8.3c1.8,1.6,7.9,0.6,11.1-1.8
		c6.5-4.9-2.1-5.9-2.5-9.3c1.9,0,3.7,0.2,5.3-0.1c1.2-0.2,3-1,3.3-1.9c0.3-0.8-0.6-2.7-1.5-3.4c-2.9-2.2-6-4.1-9.1-5.9
		c-3-1.8-5.5-3.7-6.1-7.6c-0.2-1.5-1.8-3-3-4.1c-5.2-4.6-10.4-9.4-17.3-11.6c2.5,0.6,5.1,1.2,7.6,1.8c0.1-0.3,0.3-0.5,0.4-0.8
		c-1.8-1.2-3.4-2.7-5.3-3.5c-6.9-2.9-14-3.2-21.2-1c-18.8,5.8-31,24.7-29.2,45.2c0.2,1.9,0.4,3.8,0.7,6.2c2.1-4.9,4-9.2,5.9-13.5
		c0.4,0.1,0.8,0.3,1.2,0.4c0,6.2-0.4,12.4,0.1,18.6c0.5,6.1,1.7,12.2,6.8,16.5c-0.9-6.7-2-13.3,0.9-20.5c1.7,16.6,1.7,16.6,6.3,24.3
		c-0.3,0.1-0.6,0.3-0.9,0.2c-10.6-2.7-20.9-6.1-30-12.2c-21.1-14.2-22.2-43.7-2.4-59.6c8.4-6.7,18.2-9.9,28.7-11.1
		c14.1-1.7,28.2-1.8,42.1,1.7c20.1,5,32.8,21,33.1,41.9c-2.9-0.1-5.3,0.3-7.4,3c-2.4,3.1-3.2,6.6-4.4,10.1c-0.7,1.9-0.6,4.1-0.9,7
		c-0.1-0.1,0.4,0.1,0.9,0.5c18.4,12.3,20.3,36.5,11.7,53.2c-7.8,15.1-20.9,22.8-37.1,25.9c-13.4,2.6-27,2.2-40.5,0.5
		c-2.2-0.3-4.4-0.5-6.6-0.5c-28.2,0-56.3,0-84.5,0C101.6,244.7,100.2,244.7,98.5,244.7z M257.8,158c-0.3-0.2-0.7-0.5-1-0.7
		c-3.3,1.5-6.5,2.9-9.8,4.4c0.1,0.6,0.1,1.1,0.2,1.7c2.6,0.3,5.6,1.4,7.8,0.6C256.4,163.4,256.8,160.1,257.8,158z M244.6,179.7
		c2.5-2.8,5-6,4-10.2c-0.3-1.5-2-2.8-3.2-4.5C245.1,170.5,244.9,175.1,244.6,179.7z"/>
	<path d="M198.4,72.6c1.4,3.2,2.7,6.4,4.4,9.4c0.8,1.3,2.5,2.1,3.8,3.1c0.9-1.3,2.3-2.4,2.7-3.8c1.3-5.3,2.2-10.7,3.4-16.1
		c0.3-1.1,1.3-2.1,1.9-3.1c0.5,1,1.3,1.9,1.6,3c1.2,5.3,2.1,10.8,3.5,16.1c0.4,1.5,1.9,2.6,3,4c1.3-1.1,3-2,3.7-3.4
		c1.6-2.9,2.8-6.1,4.6-10.1c0.6,1.4,1.3,2.1,1.3,3c0.1,2.1-0.5,4.2-0.2,6.3c0.3,1.9,1.3,3.7,2.1,5.6c1.5-1.1,3.4-1.9,4.6-3.3
		c1.8-2.2,3.2-4.8,5.7-7.5c0.2,1,0.7,2.2,0.4,3c-2.9,6.7-6,13.4-9.1,20.1c-4.8-0.7-9.5-1.7-14.2-2.2c-8.7-0.9-17.3-0.4-25.7,2
		c-1.8,0.5-2.7,0.1-3.5-1.6c-2.6-6-5.4-11.9-8-17.9c-0.4-0.9-0.1-2.2-0.1-3.3c0.3,0,0.7,0,1-0.1c1.8,2.7,3.4,5.5,5.4,8
		c1,1.2,2.7,1.9,4.1,2.8c0.7-1.6,1.9-3.2,2.1-4.9c0.3-2.2-0.2-4.4-0.2-6.6c0-0.9,0.5-1.8,0.7-2.8C197.7,72.5,198,72.6,198.4,72.6z"
		/>
	<path d="M221.1,220.7c12-11.3,13.5-25.1,10.2-40.3c-1.3,4.3-2.5,8.4-3.8,12.6c-3.9-16.2-7.8-26.6-13.3-34.5
		c-1.3,3.4-2.5,6.5-3.7,9.7c-0.2,0-0.4-0.1-0.6-0.1c-0.4-3.5-0.7-7-1.2-11.3c-1,1.3-1.6,2.2-2.2,3.1c-0.2-0.1-0.5-0.2-0.7-0.3
		c0-3.3,0-6.6,0-9.8c-0.2-0.1-0.4-0.1-0.6-0.2c-1,1.6-1.9,3.1-2.9,4.8c-3.8-7.9-2.7-13.6,5.1-26.6c-1.3-0.4-2.5-0.8-4.2-1.4
		c2.8-6.7,7.6-10.8,14.6-13.9c-4.6,6.8-4.7,10.3-1,15.6c-2.6,2.7-5.1,5.3-7.7,7.9c0.2,0.3,0.4,0.5,0.6,0.8c1.1-0.4,2.2-0.9,3.6-1.4
		c-1.3,3.3-2.4,6.3-3.6,9.3c0.4,0.3,0.8,0.6,1.2,0.8c0.4-1,0.8-1.9,1.2-2.9c0.2,0.2,0.5,0.4,0.7,0.5c0,2.4,0,4.8,0,8.2
		c0.9-1.8,1.5-2.8,2.1-4c4.2,10.3,8.4,20.4,12.8,31.2c-0.3-5.2-0.6-9.8-0.9-14.5c6.8,4.3,10.5,14.8,9.9,27.7
		C235.7,206.2,230.6,216.1,221.1,220.7z"/>
	<path d="M226.5,119.9c-1.3,3-2.3,5.5-3.6,8.6c-0.9-0.5-2.9-1-3.2-2c-0.7-2.8-1.3-5.8-0.8-8.5C219.3,116.2,223.3,117.3,226.5,119.9z
		"/>
	<path d="M236.9,125.4c3.5,4.4,6.6,8.4,10.3,13.1c-1.5-0.5-3-0.6-3.4-1.2c-1.9-3.4-4.8-4.1-8.2-3.8c-1.1,0.1-2.2-0.1-3.6-0.2
		c0.3-3.9,3.6-3.2,5.8-4.4C237.5,127.9,237.3,126.9,236.9,125.4z"/>
	<path d="M218.4,56.8c-1.9,1.3-3,2.6-3.9,2.5c-1-0.1-2.5-1.6-2.5-2.5c0-0.9,1.5-2.4,2.5-2.5C215.4,54.2,216.5,55.5,218.4,56.8z"/>
	<path d="M247.4,76c-1.3-1.9-2.6-3-2.5-3.9c0.1-1,1.6-1.8,2.4-2.7c0.9,0.9,2.3,1.7,2.5,2.7C250,73,248.7,74.1,247.4,76z"/>
	<path d="M185.5,71.8c-1.8,1.4-2.9,2.7-3.8,2.6c-1-0.1-1.9-1.5-2.8-2.3c0.8-0.9,1.6-2.4,2.6-2.6C182.4,69.4,183.6,70.7,185.5,71.8z"
		/>
	<path d="M196.1,71.5c-1.2-1.9-2.4-3.1-2.3-4c0.2-1,1.7-2.4,2.6-2.3c0.9,0.1,2.3,1.6,2.4,2.6C198.9,68.7,197.5,69.7,196.1,71.5z"/>
	<path d="M232.6,71.5c-1.2-1.9-2.5-3-2.4-4c0.1-1,1.7-2.4,2.5-2.4c0.9,0,2.3,1.5,2.4,2.5C235.3,68.6,233.9,69.7,232.6,71.5z"/>
</g>
<text transform="matrix(1 0 0 1 64.4144 285.9473)" class="st1 st2">LEGENDARY SOLUTIONS</text>
</svg>
