<?xml version="1.0" encoding="utf-8"?>
<!-- Generator: Adobe Illustrator 19.0.0, SVG Export Plug-In . SVG Version: 6.00 Build 0)  -->
<svg version="1.1" id="Layer_1" xmlns="http://www.w3.org/2000/svg" xmlns:xlink="http://www.w3.org/1999/xlink" x="0px" y="0px"
	 viewBox="80 3 200.9 35" style="enable-background:new 80 3 200.9 35;" xml:space="preserve">
<style type="text/css">
	.st0{fill:#4394B2;}
	.st1{fill:#FFFFFF;}
</style>
<path id="XMLID_61_" class="st0" d="M263.4,38H97.5C87.8,38,80,30.2,80,20.5l0,0C80,10.8,87.8,3,97.5,3h165.8
	c9.7,0,17.5,7.8,17.5,17.5l0,0C280.9,30.2,273,38,263.4,38z"/>
<g>
	<path class="st1" d="M149.9,24.8v-8.6h3.2c0.6,0,1,0,1.3,0.1c0.4,0.1,0.8,0.2,1.1,0.4s0.5,0.5,0.7,0.8s0.3,0.7,0.3,1.2
		c0,0.7-0.2,1.3-0.7,1.9s-1.3,0.8-2.5,0.8H151v3.5H149.9z M151,20.3h2.2c0.7,0,1.3-0.1,1.6-0.4s0.5-0.7,0.5-1.2
		c0-0.4-0.1-0.7-0.3-0.9c-0.2-0.3-0.4-0.4-0.7-0.5c-0.2-0.1-0.5-0.1-1.1-0.1H151V20.3z"/>
	<path class="st1" d="M157.8,24.8v-8.6h1.1v7.6h4.2v1H157.8z"/>
	<path class="st1" d="M163.6,24.8l3.3-8.6h1.2l3.5,8.6h-1.3l-1-2.6h-3.6l-0.9,2.6H163.6z M166.1,21.3h2.9l-0.9-2.4
		c-0.3-0.7-0.5-1.3-0.6-1.8c-0.1,0.6-0.3,1.1-0.5,1.6L166.1,21.3z"/>
	<path class="st1" d="M174.1,24.8v-3.6l-3.3-5h1.4l1.7,2.6c0.3,0.5,0.6,1,0.9,1.5c0.3-0.4,0.6-1,0.9-1.5l1.7-2.5h1.3l-3.4,5v3.6
		H174.1z"/>
	<path class="st1" d="M182.8,24.8v-8.6h1.2l4.5,6.7v-6.7h1.1v8.6h-1.2l-4.5-6.8v6.8H182.8z"/>
	<path class="st1" d="M191.1,20.6c0-1.4,0.4-2.5,1.1-3.3s1.8-1.2,3-1.2c0.8,0,1.5,0.2,2.1,0.6s1.1,0.9,1.5,1.6s0.5,1.4,0.5,2.3
		c0,0.9-0.2,1.7-0.5,2.3s-0.8,1.2-1.5,1.6s-1.3,0.5-2.1,0.5c-0.8,0-1.5-0.2-2.2-0.6s-1.1-0.9-1.4-1.6S191.1,21.4,191.1,20.6z
		 M192.3,20.6c0,1,0.3,1.9,0.8,2.4s1.3,0.9,2.1,0.9c0.9,0,1.6-0.3,2.1-0.9s0.8-1.5,0.8-2.6c0-0.7-0.1-1.3-0.4-1.8s-0.6-0.9-1-1.2
		s-1-0.4-1.5-0.4c-0.8,0-1.5,0.3-2.1,0.8S192.3,19.3,192.3,20.6z"/>
	<path class="st1" d="M202.3,24.8l-2.3-8.6h1.2l1.3,5.6c0.1,0.6,0.3,1.2,0.4,1.8c0.2-0.9,0.3-1.4,0.4-1.6l1.6-5.8h1.4l1.2,4.3
		c0.3,1.1,0.5,2.1,0.7,3c0.1-0.5,0.3-1.2,0.4-1.9l1.3-5.5h1.1l-2.4,8.6h-1.1l-1.8-6.5c-0.2-0.5-0.2-0.9-0.3-1
		c-0.1,0.4-0.2,0.7-0.3,1l-1.8,6.5H202.3z"/>
</g>
</svg>
